<svg xmlns="http://www.w3.org/2000/svg" viewBox="0 0 64 64">
  <defs>
    <linearGradient id="g" x1="0" y1="0" x2="1" y2="1">
      <stop offset="0" stop-color="#6D5BFF"/>
      <stop offset="1" stop-color="#3B2FD0"/>
    </linearGradient>
  </defs>
  <rect width="64" height="64" rx="16" fill="url(#g)"/>
  <path d="M12 27a7 7 0 0 1 7-7h26a7 7 0 0 1 7 7v9a7 7 0 0 1-7 7h-6.2a4 4 0 0 1-3.3-1.7l-1.2-1.7a3 3 0 0 0-4.6 0l-1.2 1.7A4 4 0 0 1 25.2 43H19a7 7 0 0 1-7-7Z" fill="#fff"/>
  <circle cx="23" cy="31" r="3.2" fill="#3B2FD0"/>
  <circle cx="41" cy="31" r="3.2" fill="#3B2FD0"/>
</svg>
